<svg width="33" height="32" viewBox="0 0 33 32" fill="none" xmlns="http://www.w3.org/2000/svg">
<path d="M18.8338 3.02606V8.53345C18.8338 9.28019 18.8338 9.65355 18.9791 9.93877C19.107 10.1897 19.311 10.3936 19.5618 10.5215C19.847 10.6668 20.2204 10.6668 20.9672 10.6668H26.4745M21.5005 17.3334H10.8338M21.5005 22.6667H10.8338M13.5005 12H10.8338M18.8338 2.66669H11.9005C9.66028 2.66669 8.54017 2.66669 7.68453 3.10266C6.93188 3.48615 6.31996 4.09808 5.93646 4.85073C5.50049 5.70637 5.50049 6.82648 5.50049 9.06669V22.9334C5.50049 25.1736 5.50049 26.2937 5.93646 27.1493C6.31996 27.902 6.93188 28.5139 7.68453 28.8974C8.54017 29.3334 9.66028 29.3334 11.9005 29.3334H20.4338C22.674 29.3334 23.7941 29.3334 24.6498 28.8974C25.4024 28.5139 26.0144 27.902 26.3978 27.1493C26.8338 26.2937 26.8338 25.1736 26.8338 22.9334V10.6667L18.8338 2.66669Z" stroke="#FF0000" stroke-width="2" stroke-linecap="round" stroke-linejoin="round"/>
</svg>
