<svg width="33" height="32" viewBox="0 0 33 32" fill="none" xmlns="http://www.w3.org/2000/svg">
<path d="M13.8332 10.6666V9.33331M13.8332 16.6666V15.3333M13.8332 22.6666V21.3333M7.43317 5.33331H25.5665C27.06 5.33331 27.8067 5.33331 28.3771 5.62396C28.8789 5.87962 29.2869 6.28757 29.5425 6.78934C29.8332 7.35977 29.8332 8.10651 29.8332 9.59998V11.3333C27.2558 11.3333 25.1665 13.4227 25.1665 16C25.1665 18.5773 27.2558 20.6666 29.8332 20.6666V22.4C29.8332 23.8935 29.8332 24.6402 29.5425 25.2106C29.2869 25.7124 28.8789 26.1203 28.3771 26.376C27.8067 26.6666 27.06 26.6666 25.5665 26.6666H7.43317C5.9397 26.6666 5.19296 26.6666 4.62253 26.376C4.12076 26.1203 3.71282 25.7124 3.45715 25.2106C3.1665 24.6402 3.1665 23.8935 3.1665 22.4V20.6666C5.74383 20.6666 7.83317 18.5773 7.83317 16C7.83317 13.4227 5.74383 11.3333 3.1665 11.3333V9.59998C3.1665 8.10651 3.1665 7.35977 3.45715 6.78934C3.71282 6.28757 4.12076 5.87962 4.62253 5.62396C5.19296 5.33331 5.9397 5.33331 7.43317 5.33331Z" stroke="#FF0000" stroke-width="2" stroke-linecap="round" stroke-linejoin="round"/>
</svg>
