<svg width="33" height="32" viewBox="0 0 33 32" fill="none" xmlns="http://www.w3.org/2000/svg">
<path d="M22.1667 4.62368C24.1423 5.60548 25.5 7.64419 25.5 10C25.5 12.3558 24.1423 14.3945 22.1667 15.3763M24.8333 22.3552C26.8486 23.2671 28.6634 24.7533 30.1667 26.6667M3.5 26.6667C6.09532 23.3634 9.61891 21.3333 13.5 21.3333C17.3811 21.3333 20.9047 23.3634 23.5 26.6667M19.5 10C19.5 13.3137 16.8137 16 13.5 16C10.1863 16 7.5 13.3137 7.5 10C7.5 6.68629 10.1863 4 13.5 4C16.8137 4 19.5 6.68629 19.5 10Z" stroke="#FF0000" stroke-width="2" stroke-linecap="round" stroke-linejoin="round"/>
</svg>
