<svg width="33" height="32" viewBox="0 0 33 32" fill="none" xmlns="http://www.w3.org/2000/svg">
<path d="M16.4998 2.66669V9.33335M16.4998 2.66669C15.5488 2.66669 14.621 2.76625 13.7264 2.95553M16.4998 2.66669C17.4508 2.66669 18.3786 2.76625 19.2732 2.95553M16.4998 9.33335C12.8179 9.33335 9.83317 12.3182 9.83317 16.0001M16.4998 9.33335C20.1817 9.33335 23.1665 12.3182 23.1665 16M16.4998 22.6667V29.3334M16.4998 22.6667C20.1817 22.6667 23.1665 19.6819 23.1665 16M16.4998 22.6667C12.8179 22.6667 9.83317 19.682 9.83317 16.0001M16.4998 29.3334C17.4494 29.3334 18.3758 29.2341 19.2692 29.0454M16.4998 29.3334C15.5467 29.3334 14.6169 29.2333 13.7204 29.0433M7.07172 6.57193L11.7858 11.286M21.2139 20.7141L25.9279 25.4281M3.1665 16.0001H9.83317M3.1665 16.0001C3.1665 16.9511 3.26605 17.8789 3.45536 18.7736M3.1665 16.0001C3.1665 15.0476 3.26635 14.1184 3.45619 13.2225M23.1665 16H29.8332M29.8332 16C29.8332 15.049 29.7336 14.1211 29.5443 13.2264M29.8332 16C29.8332 16.9508 29.7336 17.8782 29.5445 18.7726M7.07172 25.4281L11.7858 20.7141M21.2139 11.286L25.9279 6.57193M23.762 4.81612C25.3278 5.83494 26.6663 7.17366 27.6849 8.73961M27.6812 23.2661C26.6625 24.8306 25.3243 26.168 23.7591 27.1858M9.23812 27.1843C7.67455 26.167 6.33759 24.8307 5.3195 23.2677M5.31545 8.73851C6.33377 7.17328 7.67175 5.83512 9.23684 4.81661" stroke="#FF0000" stroke-width="2" stroke-linecap="round" stroke-linejoin="round"/>
</svg>
