<svg width="33" height="32" viewBox="0 0 33 32" fill="none" xmlns="http://www.w3.org/2000/svg">
<path d="M22.167 18.6667H22.1803M4.16699 6.66667V25.3333C4.16699 26.8061 5.3609 28 6.83366 28H25.5003C26.9731 28 28.167 26.8061 28.167 25.3333V12C28.167 10.5272 26.9731 9.33334 25.5003 9.33333L6.83366 9.33333C5.3609 9.33333 4.16699 8.13943 4.16699 6.66667ZM4.16699 6.66667C4.16699 5.19391 5.3609 4 6.83366 4H22.8337M22.8337 18.6667C22.8337 19.0349 22.5352 19.3333 22.167 19.3333C21.7988 19.3333 21.5003 19.0349 21.5003 18.6667C21.5003 18.2985 21.7988 18 22.167 18C22.5352 18 22.8337 18.2985 22.8337 18.6667Z" stroke="#FF0000" stroke-width="2" stroke-linecap="round" stroke-linejoin="round"/>
</svg>
